<?xml version="1.0" standalone="no"?>
<!DOCTYPE svg PUBLIC "-//W3C//DTD SVG 20010904//EN"
 "http://www.w3.org/TR/2001/REC-SVG-20010904/DTD/svg10.dtd">
<svg version="1.0" xmlns="http://www.w3.org/2000/svg"
 width="720.000000pt" height="726.000000pt" viewBox="0 0 720.000000 726.000000"
 preserveAspectRatio="xMidYMid meet">

<g transform="translate(0.000000,726.000000) scale(0.100000,-0.100000)"
fill="#000000" stroke="none">
<path d="M1213 3658 c-4 -7 -10 -78 -13 -157 l-5 -144 -91 92 c-91 92 -111
103 -134 77 -16 -20 -11 -28 118 -160 l112 -116 0 -55 c0 -32 -4 -55 -11 -55
-5 0 -62 50 -125 111 -86 81 -121 109 -137 107 -14 -2 -23 -11 -25 -26 -3 -18
27 -53 144 -170 l148 -147 4 -405 c3 -289 7 -407 16 -412 6 -4 21 -8 34 -8
l22 0 1 348 c0 191 3 389 5 441 l6 94 146 143 147 143 -21 21 -21 22 -59 -50
c-32 -27 -89 -79 -125 -116 -62 -61 -67 -64 -73 -43 -3 12 -6 119 -6 238 0
216 -4 239 -36 239 -7 0 -16 -6 -21 -12z"/>
<path d="M6009 3640 c-10 -7 -15 -37 -17 -125 -2 -63 -5 -115 -7 -115 -2 0
-36 30 -75 68 -85 79 -125 106 -145 98 -21 -8 -19 -42 3 -63 11 -10 52 -50 93
-89 41 -39 86 -79 102 -89 l27 -17 0 -164 c0 -93 -4 -164 -9 -164 -5 0 -11 3
-13 8 -8 18 -199 182 -213 182 -19 0 -38 -37 -28 -55 5 -8 62 -65 128 -126
113 -106 127 -125 125 -174 -1 -11 -1 -24 0 -30 1 -5 4 -139 7 -296 l5 -287
34 -4 c19 -2 36 -3 38 -1 1 2 2 119 0 260 -1 142 0 262 3 267 3 5 5 40 4 78
l-2 69 93 87 c51 48 113 106 138 129 44 41 44 42 26 62 -11 12 -23 21 -28 21
-12 0 -69 -47 -156 -127 -37 -34 -68 -60 -69 -59 -1 1 -3 74 -4 161 l-1 159
54 50 c129 119 184 172 191 183 7 11 -17 43 -33 43 -8 0 -67 -50 -156 -133
-30 -27 -55 -44 -58 -38 -4 6 -4 33 0 60 14 110 -14 197 -57 171z"/>
<path d="M1485 3000 c3 -5 8 -10 11 -10 2 0 4 5 4 10 0 6 -5 10 -11 10 -5 0
-7 -4 -4 -10z"/>
<path d="M1400 2959 c-47 -17 -66 -28 -50 -28 14 -1 37 5 51 13 14 7 37 16 52
20 15 3 27 11 27 16 0 6 -1 9 -2 9 -2 -1 -37 -14 -78 -30z"/>
<path d="M1116 2934 c-11 -8 -16 -14 -10 -14 13 0 39 18 34 24 -3 2 -14 -2
-24 -10z"/>
<path d="M1156 2925 c-3 -8 -1 -15 4 -15 6 0 10 7 10 15 0 8 -2 15 -4 15 -2 0
-6 -7 -10 -15z"/>
<path d="M1308 2913 c7 -3 16 -2 19 1 4 3 -2 6 -13 5 -11 0 -14 -3 -6 -6z"/>
<path d="M6409 2893 c-13 -16 -12 -17 4 -4 16 13 21 21 13 21 -2 0 -10 -8 -17
-17z"/>
<path d="M5654 2855 c26 -20 42 -19 22 0 -8 8 -21 15 -28 15 -8 -1 -6 -6 6
-15z"/>
<path d="M6293 2833 c-18 -7 -16 -23 3 -23 8 0 12 5 8 11 -4 7 0 9 14 5 11 -4
23 -3 26 2 6 10 -29 13 -51 5z"/>
<path d="M5712 2814 c10 -10 20 -16 22 -13 3 3 -5 11 -17 18 -21 13 -21 12 -5
-5z"/>
<path d="M5923 2789 c2 -24 -3 -34 -15 -37 -11 -2 -18 3 -18 12 0 9 -4 16 -10
16 -5 0 -10 -8 -10 -19 0 -20 52 -38 58 -20 5 13 30 11 35 -3 3 -8 6 -6 6 5 1
9 -5 17 -12 17 -7 0 -13 10 -14 21 -3 38 -21 45 -20 8z"/>
<path d="M6099 2788 c-10 -18 -9 -20 6 -15 9 4 23 7 31 7 8 0 11 6 8 15 -9 22
-31 18 -45 -7z"/>
<path d="M6248 2803 c10 -4 9 -8 -5 -19 -16 -12 -13 -12 15 -1 27 9 29 13 15
19 -10 3 -22 7 -28 7 -5 -1 -4 -3 3 -6z"/>
<path d="M5900 2770 c0 -5 5 -10 10 -10 6 0 10 5 10 10 0 6 -4 10 -10 10 -5 0
-10 -4 -10 -10z"/>
<path d="M6170 2775 c-8 -2 -33 -7 -54 -10 -48 -8 -30 -25 24 -24 33 1 33 2
10 10 -19 7 -15 8 20 5 25 -2 36 -2 26 1 -15 4 -16 7 -5 14 14 9 8 10 -21 4z"/>
<path d="M2846 2285 c4 -8 11 -15 16 -15 6 0 5 6 -2 15 -7 8 -14 15 -16 15 -2
0 -1 -7 2 -15z"/>
<path d="M2941 2284 c0 -11 3 -14 6 -6 3 7 2 16 -1 19 -3 4 -6 -2 -5 -13z"/>
<path d="M2877 2265 c-4 -8 -2 -15 3 -15 6 0 10 -7 10 -15 0 -8 5 -15 10 -15
13 0 13 3 -4 34 -10 21 -15 23 -19 11z"/>
<path d="M2915 2260 c-4 -6 -2 -17 4 -23 15 -15 25 -2 13 19 -7 12 -11 13 -17
4z"/>
<path d="M2950 2238 c0 -10 -7 -18 -15 -18 -8 0 -15 -4 -15 -8 0 -10 43 -52
54 -52 7 0 23 -12 56 -42 11 -10 34 -24 52 -33 18 -8 40 -19 48 -24 37 -22
110 -51 165 -66 33 -9 78 -22 100 -28 67 -18 347 -14 438 7 75 16 99 25 185
63 20 9 43 16 50 14 6 -1 12 2 12 7 0 5 18 17 40 27 22 10 40 22 40 26 0 4 9
10 20 14 25 8 120 82 120 94 0 4 -12 8 -27 8 -16 0 -44 5 -64 10 -24 7 -67 6
-140 -4 -79 -11 -157 -13 -329 -7 -124 4 -238 7 -255 6 -16 -1 -139 -3 -273
-4 -207 -3 -244 -1 -252 12 -8 13 -10 12 -10 -2z"/>
<path d="M4340 1699 c0 -5 5 -7 10 -4 6 3 10 8 10 11 0 2 -4 4 -10 4 -5 0 -10
-5 -10 -11z"/>
<path d="M4290 1671 c0 -6 4 -13 10 -16 6 -3 7 1 4 9 -7 18 -14 21 -14 7z"/>
<path d="M2950 1642 c-8 -9 -14 -19 -13 -22 1 -3 -18 -4 -42 -3 -38 2 -44 0
-48 -20 -4 -22 -4 -22 -6 -1 0 12 -7 24 -15 27 -11 5 -13 0 -6 -25 10 -32 -13
-84 -32 -72 -5 3 -4 11 2 19 7 8 8 20 4 26 -4 8 -3 9 4 5 14 -9 15 13 2 34 -8
13 -10 13 -10 -1 0 -9 -7 -22 -16 -30 -9 -7 -13 -21 -10 -33 3 -12 2 -26 -2
-31 -10 -14 -61 -17 -94 -5 -25 8 -28 6 -34 -18 -9 -43 -12 -49 -13 -24 -1 34
-21 26 -21 -9 0 -16 -4 -28 -8 -25 -5 3 -8 19 -7 36 1 16 -2 30 -6 30 -4 0
-10 8 -13 18 -3 9 -3 1 0 -19 4 -34 3 -37 -26 -41 -34 -5 -43 16 -10 25 11 3
20 11 20 17 0 12 -11 11 -55 -5 -14 -5 -16 -4 -6 3 10 7 6 9 -15 9 -16 0 -23
-2 -16 -4 17 -6 15 -23 -3 -23 -7 0 -18 7 -23 16 -8 15 -11 15 -36 -1 -14 -10
-27 -13 -27 -9 -1 5 -2 14 -4 19 -1 6 -3 15 -3 21 -2 15 -52 25 -52 10 0 -18
-95 -74 -144 -87 -66 -16 -123 -5 -175 36 -24 20 -47 33 -50 30 -3 -4 0 -10 8
-14 10 -6 9 -10 -5 -15 -9 -3 -19 -4 -22 -1 -3 3 -1 5 4 5 5 0 10 17 11 38 2
35 1 36 -8 10 -7 -17 -15 -25 -25 -21 -8 3 -21 0 -28 -6 -10 -8 -16 -9 -21 -1
-6 10 4 16 39 22 11 2 21 9 24 16 7 21 -46 14 -70 -10 -30 -30 -92 -34 -85 -7
7 25 2 24 -23 -3 l-22 -23 3 37 c2 21 -1 42 -7 48 -6 6 -10 -5 -10 -34 0 -51
-15 -83 -50 -109 -33 -25 -153 -27 -207 -4 -47 20 -107 80 -107 107 0 11 -4
20 -10 20 -5 0 -10 -7 -10 -15 0 -8 -7 -15 -15 -15 -8 0 -15 -6 -15 -13 0 -9
-12 -13 -35 -12 -19 0 -35 -3 -35 -7 0 -4 6 -8 14 -8 19 0 40 -26 27 -34 -5
-4 -12 -2 -16 4 -3 5 -15 10 -25 10 -10 0 -21 6 -23 13 -3 6 -6 2 -6 -10 -1
-27 -16 -30 -25 -7 -4 12 -10 13 -19 6 -6 -6 -16 -10 -22 -9 -6 1 -12 -53 -15
-138 -4 -114 -9 -146 -23 -169 -29 -44 -77 -58 -184 -54 -88 3 -94 5 -123 33
-39 39 -50 98 -51 279 -1 77 -4 132 -6 121 -3 -11 -10 -26 -15 -32 -7 -9 -7
-13 1 -13 6 0 11 -8 10 -17 0 -11 -3 -13 -6 -5 -9 23 -23 12 -23 -19 0 -18 -4
-28 -10 -24 -6 4 -8 15 -5 25 3 10 0 24 -8 31 -8 8 -12 21 -10 30 3 9 0 20 -6
23 -7 4 -11 -1 -11 -13 0 -12 -8 -21 -23 -24 -19 -4 -18 -4 6 -6 42 -2 32 -15
-20 -27 -33 -8 -55 -8 -71 -1 -18 8 -25 7 -37 -9 -13 -17 -14 -17 -15 -2 0 14
-6 16 -32 12 -18 -3 -38 -7 -45 -9 -7 -2 -10 2 -6 11 3 7 15 14 27 14 17 0 18
2 6 10 -9 6 -23 3 -42 -8 -24 -14 -32 -15 -50 -3 -19 12 -20 11 -16 -7 5 -18
3 -20 -19 -11 -33 12 -33 12 -33 -11 0 -11 -7 -20 -15 -20 -9 0 -15 9 -15 22
l0 21 -25 -23 c-20 -18 -28 -21 -37 -12 -9 9 -8 12 5 12 9 0 17 5 17 10 0 21
-31 9 -40 -15 -6 -16 -17 -25 -31 -25 -18 0 -19 2 -9 15 19 23 -18 20 -55 -5
-16 -11 -38 -20 -47 -20 -16 0 -18 -13 -18 -132 0 -155 22 -302 60 -393 4 -11
14 -40 21 -65 25 -88 133 -274 204 -350 17 -19 42 -48 54 -65 32 -43 209 -194
251 -214 19 -9 51 -27 70 -39 32 -20 75 -42 155 -77 30 -13 147 -49 195 -58
14 -3 43 -10 65 -16 27 -7 828 -11 2523 -11 2737 0 2527 -5 2726 62 127 42
271 119 371 195 199 154 372 393 443 613 56 173 61 203 60 414 -1 111 -3 191
-5 179 -3 -15 -12 -23 -24 -23 -12 0 -17 4 -14 11 4 6 -3 20 -15 32 l-23 21 7
-30 c6 -23 5 -27 -5 -16 -7 6 -23 12 -36 12 -12 0 -27 8 -32 18 -10 16 -10 16
-11 0 0 -11 -11 -19 -34 -24 -25 -4 -36 -12 -39 -28 -4 -21 -4 -21 -6 2 -1 15
-7 22 -21 22 -11 0 -20 -4 -20 -9 0 -17 -48 -18 -65 -2 -13 13 -19 13 -35 3
-18 -11 -20 -10 -20 18 l0 30 -20 -20 c-20 -20 -32 -24 -42 -14 -4 3 -33 7
-66 8 -51 2 -63 -1 -82 -21 -23 -24 -72 -31 -100 -13 -11 7 -17 5 -22 -8 -5
-13 -7 -11 -8 8 0 22 -2 23 -11 7 -5 -9 -7 -22 -3 -29 4 -7 3 -8 -4 -4 -7 4
-12 18 -12 32 0 13 -5 24 -11 24 -7 0 -9 -10 -4 -27 6 -27 7 -266 1 -308 -3
-19 -11 -20 -132 -20 l-129 0 -5 165 c-3 91 -9 171 -13 178 -5 6 -17 12 -27
12 -10 0 -22 4 -25 10 -3 5 -12 10 -18 9 -9 0 -9 -2 1 -6 24 -10 11 -23 -23
-23 -19 0 -35 -4 -35 -10 0 -14 46 -12 70 2 15 10 22 10 32 0 18 -18 21 -52 4
-46 -8 3 -12 12 -9 19 4 12 -5 13 -47 8 -39 -4 -54 -2 -62 8 -7 10 -8 6 -4
-13 6 -26 4 -27 -29 -24 -19 1 -38 5 -41 9 -4 4 -22 -4 -40 -18 -21 -16 -57
-29 -104 -36 l-73 -12 47 -23 48 -23 41 27 c23 15 44 30 45 35 4 8 64 9 86 1
20 -8 38 -75 30 -111 -11 -48 -57 -111 -95 -132 -55 -31 -162 -29 -211 4 -61
42 -108 174 -73 209 9 9 15 26 14 39 -2 12 0 27 4 34 10 15 -2 63 -15 63 -6 0
-8 -11 -6 -25 4 -20 3 -23 -8 -14 -18 14 -18 29 -1 43 9 8 12 28 9 66 l-4 54
-14 -39 c-8 -22 -14 -52 -14 -67 0 -15 -4 -30 -10 -33 -6 -4 -10 5 -10 19 0
14 -4 26 -10 26 -5 0 -7 -8 -4 -17 5 -14 4 -15 -4 -4 -5 7 -7 22 -4 34 4 17 1
19 -16 15 -16 -5 -24 1 -34 23 l-13 29 -41 -45 c-43 -48 -56 -53 -142 -62 -81
-8 -182 41 -205 100 -11 28 -28 20 -21 -9 5 -19 4 -25 -5 -20 -6 4 -11 14 -11
22 0 8 -4 14 -10 14 -5 0 -10 -6 -10 -13 0 -9 -13 -13 -42 -12 -52 2 -63 -2
-47 -21 9 -11 7 -14 -10 -14 -18 0 -21 4 -16 20 3 11 2 20 -3 20 -17 0 -21
-12 -12 -35 13 -33 -14 -40 -56 -16 -28 17 -34 18 -34 6 0 -8 -5 -15 -11 -15
-8 0 -9 11 -5 33 4 23 3 28 -4 17 -5 -8 -10 -25 -10 -37 0 -19 -6 -23 -30 -23
-20 0 -30 -5 -30 -15 0 -13 -2 -14 -14 -3 -8 7 -12 16 -9 21 2 4 -3 7 -11 7
-9 0 -16 5 -16 11 0 7 -7 8 -17 4 -10 -4 -42 -8 -70 -9 -44 -1 -53 1 -53 16 0
13 -8 17 -40 15 -44 -1 -52 -11 -17 -21 18 -5 19 -8 7 -16 -13 -8 -12 -11 5
-24 17 -13 17 -15 4 -16 -19 0 -33 26 -23 42 4 7 -9 8 -37 5 -24 -3 -36 -4
-27 -1 10 3 15 11 11 20 -3 8 1 14 11 14 9 0 16 5 16 11 0 7 -10 9 -25 7 -26
-5 -30 3 -27 45 1 11 -3 17 -10 14 -7 -2 -13 -13 -12 -24 0 -17 -3 -18 -23 -9
-16 8 -23 20 -23 41 0 22 -3 26 -9 16 -5 -8 -8 -35 -7 -60 2 -26 2 -32 -1 -15
-3 26 -8 30 -27 27 -20 -4 -22 -1 -18 25 2 16 -1 33 -7 37 -8 5 -10 -2 -6 -22
5 -26 5 -26 -5 -5 -8 19 -13 21 -30 12 -11 -6 -20 -8 -20 -4 0 3 -11 -1 -24
-9 -13 -9 -35 -18 -48 -21 -13 -2 -39 -10 -58 -18 -19 -8 -41 -13 -47 -11 -7
3 -13 1 -13 -4 0 -4 -10 -9 -22 -10 -13 -1 -45 -6 -73 -13 -27 -6 -72 -13 -99
-16 -27 -3 -52 -7 -56 -9 -4 -3 -54 -5 -111 -5 -188 -1 -355 17 -386 42 -7 5
-17 7 -22 4 -14 -9 -132 24 -154 43 -15 12 -20 13 -26 2 -6 -10 -10 -9 -14 3
-4 9 -16 16 -27 16 -11 0 -20 6 -20 13 0 6 -5 4 -11 -5 -14 -24 -28 -23 -22 2
6 24 3 25 -17 2z m1273 -42 c3 -11 1 -18 -4 -14 -5 3 -9 12 -9 20 0 20 7 17
13 -6z m-1183 -4 c0 -2 -7 -7 -16 -10 -8 -3 -12 -2 -9 4 6 10 25 14 25 6z
m-70 -26 c-8 -5 -19 -10 -25 -10 -5 0 -3 5 5 10 8 5 20 10 25 10 6 0 3 -5 -5
-10z m1382 -31 c-5 -30 -3 -28 -38 -33 -16 -2 -22 -1 -14 1 27 9 41 26 36 45
-3 12 0 18 7 15 7 -2 10 -15 9 -28z m-1476 -40 c-9 -19 -15 -29 -16 -22 0 18
20 66 25 61 3 -3 -1 -20 -9 -39z m2142 24 c2 -8 -5 -13 -17 -13 -21 0 -35 13
-24 24 10 10 36 3 41 -11z m-3692 -20 c-10 -10 -19 5 -10 18 6 11 8 11 12 0 2
-7 1 -15 -2 -18z m4287 7 c3 -11 1 -18 -4 -14 -5 3 -9 12 -9 20 0 20 7 17 13
-6z m-2770 -16 c-4 -12 -8 -13 -14 -3 -9 15 -2 32 11 24 5 -3 6 -13 3 -21z
m2227 10 c0 -2 -7 -4 -15 -4 -8 0 -15 4 -15 10 0 5 7 7 15 4 8 -4 15 -8 15
-10z m-2278 -16 c-7 -7 -12 -8 -12 -2 0 14 12 26 19 19 2 -3 -1 -11 -7 -17z
m-1017 2 c3 -5 2 -10 -4 -10 -5 0 -13 5 -16 10 -3 6 -2 10 4 10 5 0 13 -4 16
-10z m900 0 c-3 -5 -12 -7 -20 -3 -21 7 -19 13 6 13 11 0 18 -4 14 -10z m1946
-9 c13 -12 16 -21 10 -25 -9 -6 -51 26 -51 39 0 11 22 4 41 -14z m-64 3 c-3
-3 -12 -4 -19 -1 -8 3 -5 6 6 6 11 1 17 -2 13 -5z m258 -4 c3 -5 1 -10 -4 -10
-6 0 -11 5 -11 10 0 6 2 10 4 10 3 0 8 -4 11 -10z m-3608 -32 c-3 -8 -6 -5 -6
6 -1 11 2 17 5 13 3 -3 4 -12 1 -19z m1270 0 c-3 -8 -6 -5 -6 6 -1 11 2 17 5
13 3 -3 4 -12 1 -19z m-1317 3 c0 -12 -20 -25 -27 -18 -7 7 6 27 18 27 5 0 9
-4 9 -9z m-700 -11 c-19 -13 -30 -13 -30 0 0 6 10 10 23 10 18 0 19 -2 7 -10z
m2107 -12 c-3 -8 -6 -5 -6 6 -1 11 2 17 5 13 3 -3 4 -12 1 -19z m4063 18 c0
-3 -4 -8 -10 -11 -5 -3 -10 -1 -10 4 0 6 5 11 10 11 6 0 10 -2 10 -4z m430 0
c0 -3 -4 -8 -10 -11 -5 -3 -10 -1 -10 4 0 6 5 11 10 11 6 0 10 -2 10 -4z
m-6846 -31 c-4 -8 -12 -15 -20 -15 -20 0 -17 18 4 23 9 3 18 5 19 6 1 0 0 -6
-3 -14z m2426 6 c0 -5 -7 -11 -14 -14 -10 -4 -13 -1 -9 9 6 15 23 19 23 5z
m-2550 -5 c0 -11 -19 -15 -25 -6 -3 5 1 10 9 10 9 0 16 -2 16 -4z m6427 -2
c-3 -3 -12 -4 -19 -1 -8 3 -5 6 6 6 11 1 17 -2 13 -5z m383 -4 c0 -5 -5 -10
-11 -10 -5 0 -7 5 -4 10 3 6 8 10 11 10 2 0 4 -4 4 -10z m50 4 c0 -7 -27 -34
-34 -34 -4 0 -1 9 6 20 12 19 28 27 28 14z m-4405 -14 c-3 -5 -10 -10 -16 -10
-5 0 -9 5 -9 10 0 6 7 10 16 10 8 0 12 -4 9 -10z m4270 0 c3 -5 1 -10 -4 -10
-6 0 -11 5 -11 10 0 6 2 10 4 10 3 0 8 -4 11 -10z m-4310 -18 c-3 -3 -11 0
-18 7 -9 10 -8 11 6 5 10 -3 15 -9 12 -12z m3975 8 c0 -5 -4 -10 -10 -10 -5 0
-10 5 -10 10 0 6 5 10 10 10 6 0 10 -4 10 -10z m428 -29 c6 -9 10 -27 6 -41
-3 -14 -6 -32 -7 -40 -2 -22 -66 -24 -89 -4 -18 17 -24 69 -10 90 17 27 77 24
100 -5z m-778 -2 c0 -4 -7 -6 -15 -3 -8 4 -15 10 -15 15 0 4 7 6 15 3 8 -4 15
-10 15 -15z m-3496 -22 c12 -9 17 -23 14 -42 -3 -27 -7 -30 -38 -30 -31 0 -35
3 -40 30 -5 23 -1 33 15 42 26 16 28 16 49 0z m-2437 -29 c-3 -8 -6 -5 -6 6
-1 11 2 17 5 13 3 -3 4 -12 1 -19z m122 7 c71 -36 44 -145 -35 -145 -47 0 -69
13 -84 49 -15 37 2 79 40 98 32 16 45 16 79 -2z m3914 1 c22 -22 10 -66 -17
-66 -43 0 -63 49 -28 69 23 14 28 13 45 -3z m-2605 -35 c50 -26 100 -85 108
-129 9 -46 -11 -103 -44 -127 -36 -26 -143 -33 -193 -11 -52 22 -107 81 -115
122 -14 76 24 155 80 168 41 9 124 -3 164 -23z m1291 -252 c6 -19 11 -109 11
-220 0 -176 -1 -189 -19 -199 -30 -16 -59 -12 -71 9 -15 29 -13 414 2 429 7 7
24 12 39 12 21 0 29 -7 38 -31z m1727 17 c11 -12 14 -49 13 -181 0 -147 2
-169 18 -187 16 -18 16 -22 2 -46 -17 -32 -64 -40 -94 -17 -19 15 -20 30 -23
210 -2 127 1 201 8 215 13 24 55 27 76 6z m424 -5 c5 -11 10 -52 10 -91 0 -65
2 -71 18 -64 31 14 99 16 121 4 45 -24 61 -68 61 -171 0 -100 -7 -119 -45
-119 -36 0 -45 20 -45 100 0 82 -9 100 -49 100 -45 0 -61 -26 -61 -102 0 -55
-4 -72 -21 -89 -25 -25 -50 -21 -66 11 -15 29 -17 378 -3 416 12 31 64 34 80
5z m-2991 -7 c65 -19 124 -71 139 -122 17 -56 15 -147 -4 -185 -45 -88 -120
-127 -246 -127 -114 0 -108 -11 -108 219 0 207 1 213 45 224 43 10 124 6 174
-9z m677 -9 c34 -52 -10 -109 -64 -83 -32 16 -40 50 -18 84 22 32 60 32 82 -1z
m794 15 c11 -6 16 -32 18 -90 l4 -80 68 0 67 0 7 38 c3 20 6 58 6 83 0 48 9
59 51 59 42 0 49 -34 45 -233 -3 -197 -8 -217 -51 -217 -36 0 -49 26 -49 98
l-1 67 -68 3 c-62 3 -68 1 -76 -20 -4 -12 -6 -39 -3 -60 7 -69 -52 -117 -89
-72 -17 21 -16 399 2 420 13 16 47 18 69 4z m1299 -77 c6 -21 11 -43 11 -50 0
-6 15 -13 33 -15 29 -3 32 -6 35 -40 3 -37 2 -38 -36 -44 l-39 -6 -2 -54 c-2
-51 -1 -54 26 -60 37 -9 53 -22 53 -45 0 -28 -28 -49 -68 -49 -71 0 -102 47
-102 157 0 47 -2 53 -24 59 -17 4 -27 15 -31 35 -8 36 0 49 31 49 20 0 24 5
24 31 0 46 16 69 50 69 25 0 30 -5 39 -37z m-2361 -75 c9 -9 15 -9 24 0 18 18
66 15 76 -5 5 -10 10 -74 10 -143 1 -117 0 -127 -20 -139 -18 -11 -24 -10 -47
7 -25 18 -29 18 -56 5 -41 -22 -110 -12 -144 21 -42 41 -58 97 -42 154 14 53
25 68 66 94 34 20 115 24 133 6z m263 -4 c14 -17 24 -183 14 -240 -7 -40 -43
-59 -74 -38 -20 14 -21 24 -21 143 0 85 4 131 12 139 17 17 53 15 69 -4z m338
-56 c20 -37 39 -68 42 -68 3 0 18 27 34 61 31 67 59 88 94 70 11 -7 21 -15 21
-20 0 -19 -42 -124 -89 -224 -28 -59 -51 -110 -51 -114 0 -16 -53 -73 -68 -73
-27 1 -52 25 -52 50 0 12 11 44 25 72 14 27 25 56 25 63 0 8 -20 54 -45 103
-25 49 -45 98 -45 109 0 27 21 44 49 41 19 -2 33 -18 60 -70z m983 60 c48 -28
68 -60 68 -112 0 -49 -13 -56 -110 -56 -62 0 -73 -7 -42 -27 14 -8 29 -8 60 0
49 13 75 -2 70 -42 -4 -32 -39 -51 -98 -51 -116 0 -186 122 -132 230 29 59
127 90 184 58z m320 1 c14 -8 23 -8 31 0 15 15 50 14 65 -1 13 -13 18 -242 6
-272 -7 -18 -54 -22 -70 -6 -6 6 -29 6 -65 -2 -49 -10 -60 -9 -94 8 -103 50
-106 215 -5 266 40 20 101 23 132 7z m2246 -147 c28 -36 9 -92 -38 -117 -38
-20 -69 -19 -92 2 -35 31 -16 89 40 121 39 23 69 21 90 -6z"/>
<path d="M1960 819 l0 -122 45 7 c59 8 82 20 105 59 24 38 25 78 5 117 -22 43
-53 60 -107 60 l-48 0 0 -121z"/>
<path d="M2395 786 c-21 -21 -23 -29 -14 -54 15 -43 49 -55 88 -31 23 14 31
26 31 47 0 59 -62 81 -105 38z"/>
<path d="M3980 805 c-18 -21 -11 -24 35 -16 38 7 39 8 18 19 -28 16 -38 15
-53 -3z"/>
<path d="M4302 794 c-27 -19 -29 -64 -4 -87 46 -42 122 5 101 61 -17 45 -56
55 -97 26z"/>
<path d="M4291 1614 c0 -11 3 -14 6 -6 3 7 2 16 -1 19 -3 4 -6 -2 -5 -13z"/>
<path d="M4345 1621 c-3 -5 -1 -12 5 -16 5 -3 10 1 10 9 0 18 -6 21 -15 7z"/>
<path d="M2690 1611 c0 -5 5 -13 10 -16 6 -3 10 -2 10 4 0 5 -4 13 -10 16 -5
3 -10 2 -10 -4z"/>
<path d="M2740 1610 c0 -5 7 -10 16 -10 8 0 12 5 9 10 -3 6 -10 10 -16 10 -5
0 -9 -4 -9 -10z"/>
<path d="M716 1595 c4 -8 8 -15 10 -15 2 0 4 7 4 15 0 8 -4 15 -10 15 -5 0 -7
-7 -4 -15z"/>
<path d="M1285 1600 c3 -5 8 -10 11 -10 2 0 4 5 4 10 0 6 -5 10 -11 10 -5 0
-7 -4 -4 -10z"/>
<path d="M1321 1594 c0 -11 3 -14 6 -6 3 7 2 16 -1 19 -3 4 -6 -2 -5 -13z"/>
<path d="M5058 1603 c7 -3 16 -2 19 1 4 3 -2 6 -13 5 -11 0 -14 -3 -6 -6z"/>
<path d="M2338 1583 c6 -2 18 -2 25 0 6 3 1 5 -13 5 -14 0 -19 -2 -12 -5z"/>
<path d="M2657 1570 c-21 -25 -24 -48 -3 -31 11 9 29 51 22 51 -1 0 -9 -9 -19
-20z"/>
<path d="M2715 1579 c-4 -6 -4 -13 -1 -16 3 -4 6 -1 6 6 0 7 5 9 12 5 7 -4 8
-3 4 4 -9 15 -13 15 -21 1z"/>
<path d="M4408 1583 c7 -3 16 -2 19 1 4 3 -2 6 -13 5 -11 0 -14 -3 -6 -6z"/>
<path d="M4472 1574 c-14 -15 -7 -17 22 -5 15 6 16 9 5 13 -8 3 -20 -1 -27 -8z"/>
<path d="M4988 1583 c7 -3 16 -2 19 1 4 3 -2 6 -13 5 -11 0 -14 -3 -6 -6z"/>
<path d="M418 1573 c7 -3 16 -2 19 1 4 3 -2 6 -13 5 -11 0 -14 -3 -6 -6z"/>
<path d="M2358 1553 c30 -11 42 -19 38 -30 -3 -8 -1 -11 4 -8 6 3 10 14 10 24
0 20 -27 31 -70 30 -19 0 -15 -4 18 -16z"/>
<path d="M2727 1553 c-12 -11 -8 -23 8 -23 8 0 15 7 15 15 0 16 -12 20 -23 8z"/>
<path d="M6481 1544 c0 -11 3 -14 6 -6 3 7 2 16 -1 19 -3 4 -6 -2 -5 -13z"/>
<path d="M2430 1535 c0 -8 5 -15 10 -15 6 0 10 7 10 15 0 8 -4 15 -10 15 -5 0
-10 -7 -10 -15z"/>
<path d="M2471 1534 c0 -11 3 -14 6 -6 3 7 2 16 -1 19 -3 4 -6 -2 -5 -13z"/>
<path d="M2510 1540 c-8 -5 -12 -12 -9 -15 8 -8 39 5 39 16 0 11 -11 11 -30
-1z"/>
<path d="M2600 1538 c0 -7 5 -20 10 -28 8 -12 10 -11 10 7 0 12 -4 25 -10 28
-5 3 -10 0 -10 -7z"/>
<path d="M2691 1534 c0 -11 3 -14 6 -6 3 7 2 16 -1 19 -3 4 -6 -2 -5 -13z"/>
<path d="M4580 1534 c0 -8 5 -12 10 -9 6 3 10 10 10 16 0 5 -4 9 -10 9 -5 0
-10 -7 -10 -16z"/>
<path d="M6740 1539 c0 -5 5 -7 10 -4 6 3 10 8 10 11 0 2 -4 4 -10 4 -5 0 -10
-5 -10 -11z"/>
<path d="M1110 1523 c0 -12 5 -25 10 -28 13 -8 13 15 0 35 -8 12 -10 11 -10
-7z"/>
<path d="M4740 1521 c-6 -12 -7 -21 -1 -21 10 0 24 30 17 37 -2 3 -9 -5 -16
-16z"/>
<path d="M4870 1533 c0 -15 18 -35 23 -27 3 5 -1 15 -9 22 -8 7 -14 9 -14 5z"/>
<path d="M4695 1520 c-3 -5 1 -10 9 -10 9 0 16 5 16 10 0 6 -4 10 -9 10 -6 0
-13 -4 -16 -10z"/>
<path d="M6200 1519 c0 -5 5 -7 10 -4 6 3 10 8 10 11 0 2 -4 4 -10 4 -5 0 -10
-5 -10 -11z"/>
<path d="M32 1501 c-9 -5 -4 -8 16 -7 17 1 28 4 25 9 -6 9 -25 9 -41 -2z"/>
<path d="M159 1493 c-13 -15 -12 -15 9 -4 12 6 28 9 34 5 7 -4 8 -3 4 4 -10
17 -31 15 -47 -5z"/>
<path d="M6515 1500 c-3 -5 -1 -10 4 -10 6 0 11 5 11 10 0 6 -2 10 -4 10 -3 0
-8 -4 -11 -10z"/>
<path d="M6816 1503 c-11 -11 -6 -23 8 -23 8 0 17 4 20 9 7 10 -19 23 -28 14z"/>
<path d="M6960 1501 c0 -5 -9 -7 -20 -4 -12 3 -20 0 -20 -7 0 -9 -10 -11 -30
-6 -22 4 -30 2 -30 -9 0 -10 10 -15 30 -15 17 0 30 5 30 10 0 6 11 10 25 10
16 0 25 6 25 15 0 8 -2 15 -5 15 -3 0 -5 -4 -5 -9z"/>
<path d="M7080 1500 c0 -5 7 -10 15 -10 8 0 15 5 15 10 0 6 -7 10 -15 10 -8 0
-15 -4 -15 -10z"/>
<path d="M6561 1484 c0 -11 3 -14 6 -6 3 7 2 16 -1 19 -3 4 -6 -2 -5 -13z"/>
<path d="M7010 1490 c0 -5 5 -10 10 -10 6 0 10 5 10 10 0 6 -4 10 -10 10 -5 0
-10 -4 -10 -10z"/>
<path d="M5960 1479 c0 -15 32 -18 45 -5 12 12 10 13 -15 12 -17 0 -30 -4 -30
-7z"/>
<path d="M40 1470 c0 -5 7 -10 15 -10 8 0 15 5 15 10 0 6 -7 10 -15 10 -8 0
-15 -4 -15 -10z"/>
<path d="M6510 1461 c0 -5 11 -11 25 -13 28 -6 34 6 9 16 -22 8 -34 7 -34 -3z"/>
<path d="M5941 1446 c-14 -17 -7 -36 14 -36 22 0 29 20 13 36 -13 13 -16 13
-27 0z m19 -16 c0 -5 -5 -10 -11 -10 -5 0 -7 5 -4 10 3 6 8 10 11 10 2 0 4 -4
4 -10z"/>
<path d="M5650 1381 c0 -11 5 -23 10 -26 6 -4 10 5 10 19 0 14 -4 26 -10 26
-5 0 -10 -9 -10 -19z"/>
</g>
</svg>
